# xmcd
#
# Track frame offsets:
#       150
#       18049
#       34593
#       50432
#       71373
#       87541
#       103649
#       119540
#       136532
#       154309
#       170300
#       187986
#       203429
#       218897
#       234063
#       247342
#       264430
#       279603
#       294012
#       309969
#
# Disc length: 4310 seconds
#
# Revision: 1
# Processed by: cddbd v1.5.1PL0 Copyright (c) Steve Scherf et al.
# Submitted via: MusiCat 1.1
#
DISCID=0710d414
DTITLE=Various Artist - Jesus Is The Way
DYEAR=1900
DGENRE=
TTITLE0=So Much To Shout About
TTITLE1=One More Chance
TTITLE2=Hold Up The Banner
TTITLE3=It's All Over
TTITLE4=I've Been Changed
TTITLE5=Can't Nobody Do Me Like Jesus
TTITLE6=Oh Lord
TTITLE7=Just A Simple Prayer
TTITLE8=Glory Glory
TTITLE9=Just What I Need
TTITLE10=What God Can Do
TTITLE11=Here I Am Again Steal Away
TTITLE12=Time To Make A Change
TTITLE13=Jesus Is The Way
TTITLE14=On The Rock
TTITLE15=Steal Away
TTITLE16=He's A Mighty Good God
TTITLE17=I'm Trying To Get Ready
TTITLE18=Come To Jesus
TTITLE19=It's Amazing How The Lord Provides
EXTD=\n523\n
EXTT0=
EXTT1=
EXTT2=
EXTT3=
EXTT4=
EXTT5=
EXTT6=
EXTT7=
EXTT8=
EXTT9=
EXTT10=
EXTT11=
EXTT12=
EXTT13=
EXTT14=
EXTT15=
EXTT16=
EXTT17=
EXTT18=
EXTT19=
PLAYORDER=
